# AST/ASF file generated using VICON BodyLanguage
# -----------------------------------------------
:version 1.10
:name VICON
:units
  mass 1.0
  length 0.45
  angle deg
:documentation
   .ast/.asf automatically generated from VICON data using
   VICON BodyBuilder and BodyLanguage model FoxedUp or BRILLIANT.MOD
:root
   order TX TY TZ RX RY RZ
   axis XYZ
   position 0 0 0  
   orientation 0 0 0 
:bonedata
  begin
     id 1 
     name lhipjoint
     direction 0.78388 -0.462562 0.414208 
     length 3.01181 
     axis 0 0 0  XYZ
  end
  begin
     id 2 
     name lfemur
     direction 0.34202 -0.939693 0  
     length 6.04673  
     axis 0 0 20  XYZ
    dof rx ry rz
    limits (-160.0 20.0)
           (-70.0 70.0)
           (-60.0 70.0)
  end
  begin
     id 3 
     name ltibia
     direction 0.34202 -0.939693 0   
     length 7.211   
     axis 0 0 20   XYZ
    dof rx
    limits (-10.0 170.0)
  end
  begin
     id 4 
     name lfoot
     direction 0.121887 -0.334882 0.934344   
     length 2.13567   
     axis -90 7.62852e-016 20   XYZ
    dof rx rz
    limits (-45.0 90.0)
           (-70.0 20.0)
  end
  begin
     id 5 
     name ltoes
     direction 1.53555e-011 -4.2179e-011 1   
     length 1.05957   
     axis -90 7.62852e-016 20   XYZ
    dof rx
    limits (-90.0 20.0)
  end
  begin
     id 6 
     name rhipjoint
     direction -0.769387 -0.475875 0.426129   
     length 2.92756  
     axis 0 0 0  XYZ 
  end
  begin
     id 7 
     name rfemur
     direction -0.34202 -0.939693 0   
     length 6.35468   
     axis 0 0 -20   XYZ
    dof rx ry rz
    limits (-160.0 20.0)
           (-70.0 70.0)
           (-70.0 60.0)
  end
  begin
     id 8 
     name rtibia
     direction -0.34202 -0.939693 0   
     length 7.37886   
     axis 0 0 -20   XYZ
    dof rx
    limits (-10.0 170.0)
 end
 begin
     id 9 
     name rfoot
     direction -0.101763 -0.279592 0.954711   
     length 2.21478  
     axis -90 -7.62852e-016 -20   XYZ
    dof rx rz
    limits (-45.0 90.0)
           (-20.0 70.0)
  end
  begin
     id 10 
     name rtoes
     direction -1.53494e-011 -4.21851e-011 1   
     length 1.10506   
     axis -90 -7.62852e-016 -20   XYZ
    dof rx
    limits (-90.0 20.0)
  end
  begin
     id 11 
     name lowerback
     direction 0.00747405 0.999267 0.0375481   
     length 2.13259   
     axis 0 0 0   XYZ
    dof rx ry rz
    limits (-20.0 45.0)
           (-30.0 30.0)
           (-30.0 30.0)
  end
  begin
     id 12 
     name upperback
     direction 0.00661626 0.996177 0.0871029   
     length 2.10528   
     axis 0 0 0   XYZ
    dof rx ry rz
    limits (-20.0 45.0)
           (-30.0 30.0)
           (-30.0 30.0)
  end
  begin
     id 13 
     name thorax
     direction 0.00320659 0.997679 0.0680167   
     length 2.11338   
     axis 0 0 0   XYZ
    dof rx ry rz
    limits (-20.0 45.0)
           (-30.0 30.0)
           (-30.0 30.0)
  end
  begin
     id 14 
     name lowerneck
     direction 0.0374841 0.973033 0.227602   
     length 1.42765   
     axis 0 0 0   XYZ
    dof rx ry rz
    limits (-20.0 45.0)
           (-30.0 30.0)
           (-30.0 30.0)
  end
  begin
     id 15 
     name upperneck
     direction 0.00481585 0.989155 -0.146795   
     length 1.47593   
     axis 0 0 0   XYZ
    dof rx ry rz
    limits (-20.0 45.0)
           (-30.0 30.0)
           (-30.0 30.0)
  end
  begin
     id 16
     name head
     direction -0.00292522 0.997206 -0.0746423  
     length 1.48116  
     axis 0 0 0   XYZ
    dof rx ry rz
    limits (-20.0 45.0)
           (-30.0 30.0)
           (-30.0 30.0)
  end
  begin
     id 17 
     name lclavicle
     direction 0.951444 0.305606 0.0368784  
     length 3.01855  
     axis 0 0 0   XYZ
    dof ry rz
    limits (-20.0 10.0)
           (0.0 20.0)
  end
  begin
     id 18 
     name lhumerus
     direction 1 -4.48977e-011 2.61664e-027   
     length 5.52731   
     axis 180 -30 -90   XYZ
    dof rx ry rz
    limits (-60.0 90.0)
           (-90.0 90.0)
           (-90.0 90.0)
  end
  begin
     id 19
     name lradius
     direction 1 -4.48944e-011 8.22157e-027   
     length 3.11059   
     axis 180 -30 -90   XYZ
    dof rx
    limits (-10.0 170.0)
  end
  begin
     id 20
     name lwrist
     direction 1 -4.48976e-011 1.5779e-026   
     length 1.5553   
     axis -1.15221e-014 90 90   XYZ
    dof ry
    limits (-180.0 0.0)
 end
  begin
     id 21 
     name lhand
     direction 1 -4.49025e-011 3.1558e-026   
     length 0.419626   
     axis -2.01367e-014 90 90   XYZ
    dof rx rz
    limits (-90.0 90.0)
           (-45.0 45.0)
  end
  begin
     id 22 
     name lfingers
     direction 1 -4.4904e-011 6.31161e-026   
     length 0.338313   
     axis -4.02734e-014 90 90   XYZ
    dof rx
    limits (0.0 90.0)
  end
  begin
     id 23
     name lthumb
     direction 0.707107 -6.35004e-011 0.707107   
     length 0.485752   
     axis -90 45 2.85299e-015   XYZ
    dof rx rz
    limits (-45.0 45.0)
           (-45.0 45.0)
  end
  begin
     id 24 
     name rclavicle
     direction -0.968876 0.223791 0.105816   
     length 3.04177  
     axis 0 0 0   XYZ 
    dof ry rz
    limits (-10.0 20.0)
           (-20.0 0.0)
  end
  begin
     id 25 
     name rhumerus
     direction -1 -4.48962e-011 -1.01384e-027  
     length 5.25396   
     axis 180 30 90   XYZ
    dof rx ry rz
    limits (-90.0 60.0)
           (-90.0 90.0)
           (-90.0 90.0)
  end
  begin
     id 26 
     name rradius
     direction -1 -4.48955e-011 8.88542e-027   
     length 3.10567   
     axis 180 30 90   XYZ
    dof rx
    limits (-10.0 170.0)
  end
  begin
     id 27 
     name rwrist
     direction -1 -4.48994e-011 1.5779e-026   
     length 1.55283   
     axis -1.15221e-014 -90 -90   XYZ
    dof ry
    limits (-180.0 0.0)
  end
  begin
     id 28
     name rhand
     direction -1 -4.48891e-011 3.1558e-026   
     length 0.498676   
     axis -2.01367e-014 -90 -90   XYZ
    dof rx rz
    limits (-90.0 90.0)
           (-45.0 45.0)
  end
  begin
     id 29
     name rfingers
     direction -1 -4.48972e-011 6.31161e-026   
     length 0.402045   
     axis -4.02734e-014 -90 -90   XYZ
    dof rx
    limits (0.0 90.0)
  end
  begin
     id 30
     name rthumb
     direction -0.707107 -6.34849e-011 0.707107   
     length 0.577259   
     axis -90 -45 -2.85299e-015   XYZ
    dof rx rz
    limits (-45.0 45.0)
           (-45.0 45.0)
  end
:hierarchy
  begin
    root lhipjoint rhipjoint lowerback
    lhipjoint lfemur
    lfemur ltibia
    ltibia lfoot
    lfoot ltoes
    rhipjoint rfemur
    rfemur rtibia
    rtibia rfoot
    rfoot rtoes
    lowerback upperback
    upperback thorax
    thorax lowerneck lclavicle rclavicle
    lowerneck upperneck
    upperneck head
    lclavicle lhumerus
    lhumerus lradius
    lradius lwrist
    lwrist lhand lthumb
    lhand lfingers
    rclavicle rhumerus
    rhumerus rradius
    rradius rwrist
    rwrist rhand rthumb
    rhand rfingers
  end

#!OML:ASF H:\Pregnant\Project 1\Capture day 1\Session 1\femalepreg.ASF
:FULLY-SPECIFIED
:DEGREES
18
root 9.809 15.9669 -2.34006 19.6828 -6.2893 -0.0201209
lowerback -20.9645 -0.191632 0.402296
upperback -5.75751 -0.325801 -0.507968
thorax 5.44959 -0.169419 -0.857141
lowerneck -13.8022 -0.993475 2.28422
upperneck 31.3241 -2.21339 0.0891037
head 12.6741 -0.726472 -0.695634
rclavicle -8.01972e-015 1.51076e-014
rhumerus -38.7025 -11.3316 -76.4518
rradius 25.8422
rwrist -0.925859
rhand -14.8102 -15.5181
rfingers 7.12502
rthumb 11.3478 -45.191
lclavicle -8.01972e-015 1.51076e-014
lhumerus -38.6995 -23.144 93.4956
lradius 29.6907
lwrist 43.2418
lhand -25.6917 -4.87248
lfingers 7.12502
lthumb 0.843472 25.1056
rfemur -33.6549 22.7358 18.0548
rtibia 35.7395
rfoot -17.0636 -13.2352
rtoes -5.42232
lfemur -25.0385 -9.63072 -18.7042
ltibia 22.5254
lfoot -14.5463 7.22029
ltoes -19.4424
19
root 9.79211 15.959 -2.32674 19.697 -6.15057 0.0085165
lowerback -20.8969 -0.127125 0.566572
upperback -5.70913 -0.269941 -0.575447
thorax 5.46651 -0.140694 -1.00897
lowerneck -13.6877 -0.888253 2.38638
upperneck 31.3916 -2.06866 0.0434228
head 12.678 -0.654999 -0.708976
rclavicle 6.65618e-015 1.19271e-015
rhumerus -38.739 -11.3849 -76.3846
rradius 25.7874
rwrist -0.865907
rhand -14.8126 -15.534
rfingers 7.12502
rthumb 11.3455 -45.2071
lclavicle 6.65618e-015 1.19271e-015
lhumerus -38.4359 -22.7275 93.1131
lradius 29.7636
lwrist 43.1816
lhand -25.5417 -4.7966
lfingers 7.12502
lthumb 0.98842 25.1809
rfemur -33.6464 22.657 18.1466
rtibia 35.8839
rfoot -17.2191 -13.2813
rtoes -5.43491
lfemur -25.2633 -9.87303 -18.6274
ltibia 22.9574
lfoot -14.5783 7.4451
ltoes -19.7761
20
root 9.77574 15.9509 -2.31333 19.7252 -5.99864 0.0265247
lowerback -20.829 -0.0572698 0.758168
upperback -5.66761 -0.212691 -0.64129
thorax 5.4761 -0.1111 -1.1743
lowerneck -13.5767 -0.788175 2.48069
upperneck 31.4638 -1.92722 -0.00781705
head 12.6848 -0.586479 -0.72375
rclavicle -6.32384e-015 -1.07344e-014
rhumerus -38.7922 -11.4429 -76.3087
rradius 25.743
rwrist -0.804297
rhand -14.809 -15.5424
rfingers 7.12502
rthumb 11.349 -45.2153
lclavicle -6.32384e-015 -1.07344e-014
lhumerus -38.1742 -22.2905 92.7216
lradius 29.8372
lwrist 43.1162
lhand -25.3579 -4.63552
lfingers 7.12502
lthumb 1.16586 25.341
rfemur -33.6521 22.5468 18.2519
rtibia 36.0334
rfoot -17.3842 -13.3021
rtoes -5.47352
lfemur -25.5798 -10.0649 -18.5432
ltibia 23.5122
lfoot -14.633 7.61123
ltoes -20.1648
21
root 9.75997 15.9416 -2.30011 19.7714 -5.82746 0.030864
lowerback -20.7647 0.0160564 0.980837
upperback -5.63001 -0.157407 -0.702877
thorax 5.48353 -0.0822112 -1.35334
lowerneck -13.4762 -0.693634 2.56095
upperneck 31.539 -1.78909 -0.0617478
head 12.6953 -0.521269 -0.737814
rclavicle 6.7711e-015 -1.98785e-016
rhumerus -38.8504 -11.4824 -76.2351
rradius 25.7178
rwrist -0.768312
rhand -14.7892 -15.5725
rfingers 7.12502
rthumb 11.3681 -45.2444
lclavicle 6.7711e-015 -1.98785e-016
lhumerus -37.9052 -21.8231 92.3185
lradius 29.9062
lwrist 43.0298
lhand -25.1547 -4.4349
lfingers 7.12502
lthumb 1.36212 25.5405
rfemur -33.6789 22.4036 18.3736
rtibia 36.1899
rfoot -17.5535 -13.3021
rtoes -5.53868
lfemur -26.0079 -10.1403 -18.461
ltibia 24.2111
lfoot -14.7213 7.65022
ltoes -20.6078
22
root 9.74496 15.9311 -2.28697 19.828 -5.64128 0.0175134
lowerback -20.6956 0.0955455 1.24003
upperback -5.59795 -0.101536 -0.76097
thorax 5.48284 -0.0528171 -1.54935
lowerneck -13.3854 -0.602402 2.63979
upperneck 31.6199 -1.65189 -0.126598
head 12.7103 -0.457886 -0.756176
rclavicle 2.38852e-015 -1.70955e-014
rhumerus -38.9241 -11.4957 -76.167
rradius 25.7195
rwrist -0.76562
rhand -14.7517 -15.624
rfingers 7.12502
rthumb 11.4042 -45.2939
lclavicle 2.38852e-015 -1.70955e-014
lhumerus -37.6401 -21.3305 91.9089
lradius 29.9726
lwrist 42.9237
lhand -24.953 -4.25588
lfingers 7.12502
lthumb 1.55694 25.7182
rfemur -33.7166 22.2231 18.5204
rtibia 36.3512
rfoot -17.7286 -13.2723
rtoes -5.61859
lfemur -26.5465 -10.1324 -18.3722
ltibia 25.0691
lfoot -14.8352 7.59616
ltoes -21.0772
23
root 9.73064 15.9196 -2.27409 19.894 -5.43169 -0.0175547
lowerback -20.6153 0.179883 1.53884
upperback -5.56861 -0.0472358 -0.814852
thorax 5.47365 -0.0239536 -1.76384
lowerneck -13.3096 -0.514317 2.71564
upperneck 31.7019 -1.51682 -0.196834
head 12.7291 -0.396354 -0.776599
rclavicle -5.38893e-015 1.49089e-014
rhumerus -38.9997 -11.5102 -76.0951
rradius 25.7333
rwrist -0.772188
rhand -14.6939 -15.6841
rfingers 7.12502
rthumb 11.46 -45.3509
lclavicle -5.38893e-015 1.49089e-014
lhumerus -37.3714 -20.8167 91.489
lradius 30.0382
lwrist 42.7988
lhand -24.7735 -4.12564
lfingers 7.12502
lthumb 1.7303 25.8471
rfemur -33.7607 22.0143 18.6967
rtibia 36.5131
rfoot -17.9009 -13.2302
rtoes -5.70899
lfemur -27.2051 -10.1063 -18.2579
ltibia 26.1015
lfoot -14.9541 7.50984
ltoes -21.5879
24
root 9.71716 15.9076 -2.26162 19.9677 -5.19989 -0.0794366
lowerback -20.5183 0.26823 1.88087
upperback -5.54307 0.00363405 -0.859797
thorax 5.45181 0.00339057 -1.99423
lowerneck -13.2513 -0.428354 2.78602
upperneck 31.7863 -1.38152 -0.273537
head 12.7529 -0.336066 -0.798731
rclavicle -7.58332e-015 5.96354e-016
rhumerus -39.0798 -11.5024 -76.0269
rradius 25.7719
rwrist -0.807185
rhand -14.619 -15.7465
rfingers 7.12502
rthumb 11.5322 -45.4093
lclavicle -7.58332e-015 5.96354e-016
lhumerus -37.1042 -20.2704 91.0628
lradius 30.1063
lwrist 42.6528
lhand -24.6282 -4.08173
lfingers 7.12502
lthumb 1.87067 25.8898
rfemur -33.8056 21.7854 18.9056
rtibia 36.6663
rfoot -18.0648 -13.1809
rtoes -5.79158
lfemur -27.9856 -10.0764 -18.1119
ltibia 27.3144
lfoot -15.0654 7.409
ltoes -22.1269
25
root 9.70467 15.8944 -2.24954 20.0423 -4.94855 -0.175368
lowerback -20.4012 0.36108 2.26996
upperback -5.51899 0.0509948 -0.890803
thorax 5.41812 0.0291593 -2.23739
lowerneck -13.2059 -0.342757 2.85431
upperneck 31.87 -1.24286 -0.360652
head 12.7793 -0.275833 -0.82416
rclavicle -3.30728e-014 -7.15625e-015
rhumerus -39.1652 -11.475 -75.9539
rradius 25.8336
rwrist -0.862647
rhand -14.5401 -15.8058
rfingers 7.12502
rthumb 11.6083 -45.4643
lclavicle -3.30728e-014 -7.15625e-015
lhumerus -36.8479 -19.6872 90.635
lradius 30.1938
lwrist 42.4973
lhand -24.5148 -4.10488
lfingers 7.12502
lthumb 1.98016 25.8657
rfemur -33.8395 21.5373 19.1578
rtibia 36.8025
rfoot -18.2161 -13.1231
rtoes -5.87262
lfemur -28.8813 -10.0077 -17.9381
ltibia 28.7116
lfoot -15.1768 7.26237
ltoes -22.6407
26
root 9.69318 15.8805 -2.23803 20.1165 -4.67217 -0.309031
lowerback -20.2613 0.458469 2.71065
upperback -5.4933 0.0946236 -0.909526
thorax 5.37426 0.0532604 -2.49774
lowerneck -13.1428 -0.262369 2.90247
upperneck 31.9261 -1.10875 -0.435792
head 12.7909 -0.218842 -0.841828
rclavicle 1.46604e-015 -1.43125e-014
rhumerus -39.25 -11.4376 -75.8785
rradius 25.9151
rwrist -0.931455
rhand -14.4581 -15.874
rfingers 7.12502
rthumb 11.6874 -45.528
lclavicle 1.46604e-015 -1.43125e-014
lhumerus -36.5922 -19.0782 90.2027
lradius 30.2966
lwrist 42.3416
lhand -24.4207 -4.16535
lfingers 7.12502
lthumb 2.07101 25.8043
rfemur -33.8513 21.2744 19.4573
rtibia 36.9028
rfoot -18.3451 -13.0636
rtoes -5.9546
lfemur -29.8848 -9.8957 -17.7359
ltibia 30.282
lfoot -15.2692 7.06301
ltoes -23.0882
27
root 9.68273 15.8658 -2.22715 20.1844 -4.36953 -0.481735
lowerback -20.0918 0.557452 3.20039
upperback -5.46594 0.131688 -0.911823
thorax 5.31646 0.0741498 -2.77004
lowerneck -13.0701 -0.187667 2.93796
upperneck 31.961 -0.97968 -0.507669
head 12.7918 -0.165435 -0.856578
rclavicle -1.53942e-015 -7.15625e-015
rhumerus -39.3325 -11.3842 -75.7974
rradius 26.011
rwrist -1.01292
rhand -14.3857 -15.9496
rfingers 7.12502
rthumb 11.7572 -45.5996
lclavicle -1.53942e-015 -7.15625e-015
lhumerus -36.3508 -18.4368 89.7743
lradius 30.4287
lwrist 42.1868
lhand -24.3586 -4.28114
lfingers 7.12502
lthumb 2.131 25.688
rfemur -33.8279 21.0022 19.8062
rtibia 36.9539
rfoot -18.446 -13.0059
rtoes -6.03123
lfemur -30.9865 -9.73213 -17.5074
ltibia 32.0169
lfoot -15.3303 6.79688
ltoes -23.3772
28
root 9.6734 15.853 -2.21707 20.2431 -4.04524 -0.696204
lowerback -19.8839 0.660136 3.74236
upperback -5.43917 0.165566 -0.89941
thorax 5.23771 0.0931926 -3.05706
lowerneck -12.9825 -0.122397 2.96318
upperneck 31.9741 -0.863195 -0.571973
head 12.7803 -0.1181 -0.86824
rclavicle -4.7751e-015 -5.56597e-015
rhumerus -39.4129 -11.3326 -75.7035
rradius 26.1094
rwrist -1.09178
rhand -14.3141 -16.0047
rfingers 7.12502
rthumb 11.8262 -45.6508
lclavicle -4.7751e-015 -5.56597e-015
lhumerus -36.1322 -17.7623 89.3491
lradius 30.598
lwrist 42.0306
lhand -24.3105 -4.37871
lfingers 7.12502
lthumb 2.17745 25.5899
rfemur -33.7561 20.7245 20.2033
rtibia 36.9336
rfoot -18.5103 -12.9437
rtoes -6.10655
lfemur -32.1685 -9.59175 -17.2356
ltibia 33.8897
lfoot -15.318 6.54651
ltoes -23.5203
29
root 9.66528 15.8417 -2.20722 20.2895 -3.70805 -0.949104
lowerback -19.6454 0.76815 4.3291
upperback -5.407 0.200523 -0.872425
thorax 5.14876 0.112598 -3.35372
lowerneck -12.8931 -0.0647651 2.98075
upperneck 31.9685 -0.758351 -0.627569
head 12.7605 -0.0758465 -0.876782
rclavicle -5.99072e-015 -8.15017e-015
rhumerus -39.4813 -11.2816 -75.5982
rradius 26.2076
rwrist -1.16813
rhand -14.2651 -16.0774
rfingers 7.12502
rthumb 11.8735 -45.7208
lclavicle -5.99072e-015 -8.15017e-015
lhumerus -35.9343 -17.0715 88.9388
lradius 30.804
lwrist 41.8877
lhand -24.2875 -4.5313
lfingers 7.12502
lthumb 2.19973 25.4371
rfemur -33.6259 20.4448 20.6442
rtibia 36.8275
rfoot -18.5324 -12.8701
rtoes -6.18694
lfemur -33.4056 -9.4324 -16.9399
ltibia 35.8682
lfoot -15.2152 6.28472
ltoes -23.5655
